<?xml version="1.0" standalone="no"?>
<!DOCTYPE svg PUBLIC "-//W3C//DTD SVG 20010904//EN"
 "http://www.w3.org/TR/2001/REC-SVG-20010904/DTD/svg10.dtd">
<svg version="1.0" xmlns="http://www.w3.org/2000/svg"
 width="56.000000pt" height="56.000000pt" viewBox="0 0 56.000000 56.000000"
 preserveAspectRatio="xMidYMid meet">

<g transform="translate(0.000000,56.000000) scale(0.100000,-0.100000)"
fill="#000000" stroke="none">
<path d="M12 498 l3 -60 187 -76 c166 -68 212 -92 178 -92 -5 0 -90 -33 -187
-74 l-178 -75 -3 -61 c-2 -34 1 -60 5 -57 4 3 98 41 208 85 110 45 227 92 260
106 l60 25 3 59 3 59 -158 66 c-87 36 -209 86 -271 111 l-113 45 3 -61z"/>
</g>
</svg>
