<?xml version="1.0" standalone="yes"?>
<svg xmlns="http://www.w3.org/2000/svg" width="1000" height="1000">
<path style="fill:#ffffff; stroke:none;" d="M0 0L0 1000L1000 1000L1000 0L0 0z"/>
<path style="fill:#f9dca2; stroke:none;" d="M280 354L280 355L294 355L280 354M727 354L727 355L740 355L727 354M269 355L269 356L274 356L269 355z"/>
<path style="fill:#939aa1; stroke:none;" d="M325 445C302.029 443.172 281.243 436.93 258 441.261C214.21 449.421 185.647 500.248 215.529 539C241.286 572.401 304.207 563.357 327 531C333.735 539.195 339.843 559.344 354 554.005C357.6 552.648 360.831 550.13 364 547.999C367.148 545.883 370.842 543.718 372.254 539.985C374.439 534.209 369.569 528.01 367.312 523C363.787 515.175 362.972 507.426 362.17 499C358.568 461.15 374.769 406.268 346.535 375.17C322.39 348.575 279.12 353.235 248 360.579C231.108 364.565 208.566 374.02 217.742 395.941C219.965 401.251 225.746 399.62 230 398.135C241.954 393.962 253.408 389.553 266 387.59C284.525 384.703 311.409 385.578 320.672 405C326.513 417.247 325 431.847 325 445z"/>
<path style="fill:#f9dca2; stroke:none;" d="M299 355L299 356L304 356L299 355M719 355L719 356L726 356L719 355z"/>
<path style="fill:#939aa1; stroke:none;" d="M726 355.424C713.213 357.124 701.169 359.554 690 366.428C660.034 384.87 652.62 427.115 680.004 451.826C695.679 465.972 718.538 469.868 738 476.355C750.736 480.6 769.971 488.194 767.695 505C763.207 538.145 712.015 531.37 690 524.792C683.375 522.812 670.028 513.815 663.279 518.029C651.426 525.428 663.958 545.705 672 549.73C694.396 560.938 723.693 562.458 748 558.704C759.859 556.872 771.228 552.701 781 545.702C789.101 539.9 795.779 532.189 799.771 523C809.438 500.751 805.168 473.763 785 458.761C771.894 449.011 755.289 445.243 740 440.344C725.408 435.669 700.777 430.462 699.877 411.286C698.38 379.398 748.563 383.958 768 389.721C773.908 391.472 785.595 399.069 791.566 394.972C799.355 389.629 792.843 370.925 786.995 366.839C771.674 356.135 744.119 353.016 726 355.424z"/>
<path style="fill:#f9dca2; stroke:none;" d="M745 355L745 356L750 356L745 355M261 356L261 357L266 357L261 356M307 356L307 357L313 357L307 356M714 356L714 357L718 357L714 356M754 356L754 357L758 357L754 356M257 357L257 358L260 358L257 357z"/>
<path style="fill:#273341; stroke:none;" d="M269 357.428C251.481 359.937 206.371 367.171 218.894 394.852C222.632 403.115 245.705 390.854 252 389.151C279.952 381.59 320.932 381.32 325.711 418C326.385 423.18 328.833 446.385 321.952 446.237C292.631 445.605 265.44 434.191 237 449.323C202.767 467.538 192.466 520.879 225 546.482C249.003 565.372 287.255 560.342 311 543.975C314.789 541.363 323.337 530.957 327.87 531.631C337.311 533.036 337.039 556.073 351 553.538C357.022 552.444 370.32 544.411 371.461 537.996C372.742 530.796 364.61 521 362.756 514C359.465 501.573 361 487.741 361 475C361 434.163 369.608 377.334 321 361.004C314.442 358.801 306.932 357.185 300 357.015C289.928 356.767 278.979 355.999 269 357.428z"/>
<path style="fill:#f9dca2; stroke:none;" d="M313.667 357.333L314.333 357.667L313.667 357.333M710.667 357.333L711.333 357.667L710.667 357.333z"/>
<path style="fill:#273341; stroke:none;" d="M719 357.464C707.752 359.438 696.311 362.985 687.004 369.746C659.034 390.062 655.565 431.302 684 453.32C700.788 466.32 722.552 468.986 742 476.054C755.209 480.855 771.125 489.397 768.699 506C763.886 538.948 712.333 532.93 690 526.229C684.24 524.501 669.942 515.511 664.318 519.043C661.238 520.978 662.001 525.924 662 529C661.996 538.795 663.313 544.379 673 548.572C695.82 558.449 723.526 561.749 748 557.385C759.759 555.288 771.327 551.213 781 544.076C788.87 538.269 794.78 530.868 798.822 522C801.783 515.504 802.989 509.114 803 502C803.012 494.758 802.926 487.918 800.453 481C790.849 454.13 759.83 448.437 736 440.494C721.302 435.594 698.457 429.236 698.344 410C698.159 378.389 747.357 382.211 767 388.036C772.396 389.637 785.274 397.601 790.486 393.968C799.314 387.816 790.779 370.118 783.999 366.41C766.455 356.812 738.539 354.035 719 357.464z"/>
<path style="fill:#f9dca2; stroke:none;" d="M759 357L759 358L762 358L759 357M253 358L253 359L256 359L253 358M317 358L317 359L320 359L317 358M706 358L706 359L709 359L706 358M764.667 358.333L765.333 358.667L764.667 358.333M249 359L249 360L253 360L249 359M320.667 359.333L321.333 359.667L320.667 359.333M704 359L705 360L704 359M768.667 359.333L769.333 359.667L768.667 359.333M245 360L245 361L249 361L245 360M323 360L323 361L326 361L323 360M382 375L383 375C382.546 371.408 380.93 366.518 383.603 363.434C386.465 360.133 392.116 361 396 361C407.011 360.999 418.173 359.116 422 372C423.266 367.367 419.325 362.419 414.996 360.742C409.277 358.528 386.831 357.568 382.603 362.434C379.763 365.702 381.298 371.216 382 375M500 360L500 361L528 361L500 360M607 371L608 371C612.259 356.703 631.238 361 643 361C632.433 356.566 609.42 357.65 607 371M701.667 360.333L702.333 360.667L701.667 360.333M771 360L771 361L774 361L771 360M243 361L244 362L243 361M326.667 361.333L327.333 361.667L326.667 361.333z"/>
<path style="fill:#939aa1; stroke:none;" d="M513 409C518.783 420.521 520.284 435.472 523.235 448C528.491 470.324 533.596 492.875 539.576 515C542.243 524.871 542.836 545.609 551.225 552.297C558.212 557.868 584.397 557.603 589.637 549.811C596.525 539.568 598.443 523.67 602.333 512C612.6 481.199 621.428 449.917 631.344 419C634.977 407.674 638.463 396.306 642.164 385C643.914 379.652 647.24 372.721 646.762 367.005C645.98 357.677 616.873 358.8 611.394 363.653C603.127 370.974 602.217 391.743 599.201 402C594.937 416.505 591.294 431.331 587.627 446C582.222 467.62 572.934 490.82 571 513L569 513C568.066 501.571 564.025 490.164 561.499 479C555.534 452.637 548.821 426.393 543.014 400C540.889 390.344 539.568 367.297 529.956 362.179C523.111 358.535 499.486 358.84 494.513 365.109C487.941 373.393 487.324 389.896 484.87 400C478.076 427.977 467.342 458.326 465 487L466 487C473.294 458.809 479.041 430.206 486.269 402C488.909 391.694 489.186 377.107 494.857 368.018C499.835 360.042 520.105 359.411 527.995 363.318C538.859 368.698 539.245 391.471 541.873 402C551.324 439.85 558.437 478.425 569 516L571 516C579.282 494.047 583.154 469.7 589.116 447C592.781 433.041 595.905 418.904 599.745 405C602.692 394.332 604.334 371.876 613.214 364.653C618.397 360.436 642.89 358.724 644.642 367.019C645.559 371.363 642.78 376.887 641.576 381C638.441 391.706 634.992 402.335 631.717 413C622.795 442.051 612.965 470.833 604.424 500C600.19 514.461 597.029 536.617 588.006 548.786C583.179 555.296 561.997 554.977 555.043 551.991C544.751 547.57 543.785 524.571 541.265 515C535.331 492.457 529.796 469.739 524.651 447C521.56 433.34 519.537 417.869 514 405L512 405C506.247 427.225 501.879 449.826 495.986 472C490.966 490.89 486.743 510.006 482.13 529C480.475 535.813 480.059 546.584 473.787 550.991C466.962 555.786 442.845 555.272 438.086 547.895C431.199 537.222 429.493 521.035 425.656 509C415.615 477.51 405.876 445.76 396.709 414C393.728 403.672 390.797 393.221 387.481 383C385.994 378.413 382.83 371.929 383.502 367.019C384.57 359.222 407.466 360.751 412.996 362.893C423.809 367.082 425.801 391.009 428.37 401C435.393 428.309 441.963 455.727 449.116 483C451.429 491.819 452.383 507.594 459 514L465 488L464 488C462.65 494.962 462.003 504.727 457 510C455.305 489.247 446.692 468.223 441.884 448C435.844 422.59 431.687 393.04 421.521 369.001C416.886 358.041 403.78 360.996 394 361C390.358 361.001 384.44 360.137 382.603 364.228C380.649 368.583 383.049 374.766 384.294 379C387.739 390.715 391.798 402.26 395.14 414C404.554 447.063 414.229 480.358 425.001 513C428.6 523.906 430.341 541.751 437.702 550.66C443.357 557.503 466.505 557.214 473.956 553.427C483.506 548.575 484.852 525.519 487.011 516C495.054 480.533 501.922 443.644 513 409z"/>
<path style="fill:#f9dca2; stroke:none;" d="M497.667 361.333L498.333 361.667L497.667 361.333M529.667 361.333L530.333 361.667L529.667 361.333M644 361L645 362L644 361M698.667 361.333L699.333 361.667L698.667 361.333M775.667 361.333L776.333 361.667L775.667 361.333M239 362L239 363L242 363L239 362M328 362L329 363L328 362z"/>
<path style="fill:#273341; stroke:none;" d="M512 405L514 405C525.55 441.12 531.608 479.314 541.265 516C543.618 524.937 544.674 547.757 554.105 551.991C560.541 554.88 583.305 555.404 588.006 549.606C596.05 539.685 598.549 520.104 602.341 508L632.341 412C635.673 401.365 639.058 390.71 642.141 380C643.371 375.727 645.863 370.594 644.678 366.059C642.801 358.872 617.053 360.527 612.394 364.653C604.158 371.946 602.161 394.566 599.478 405C595.711 419.653 592.33 434.412 588.293 449C582.141 471.229 577.255 493.792 571 516L569 516C562.153 482.81 552.978 450.051 545.499 417C542.076 401.872 540.679 383.098 534.196 369.005C529.927 359.725 504.656 358.457 497.133 364.514C488.644 371.35 487.721 394.736 485.231 405C476.588 440.638 471.564 479.589 459 514C452.663 505.29 451.629 491.328 448.849 481C441.792 454.79 435.487 428.327 428.873 402C426.491 392.518 424.28 368.15 414.956 363.318C409.87 360.682 384.867 359.24 383.358 366.059C382.255 371.04 385.557 378.333 387.139 383C390.358 392.501 393.092 402.351 395.859 412C405.153 444.416 414.919 476.93 425.33 509C429.25 521.073 430.84 538.277 438.086 548.786C442.623 555.366 468.517 555.626 474.61 550.991C480.422 546.568 480.756 535.558 482.374 529C487.138 509.695 492.031 490.371 496.5 471C501.571 449.018 507.703 427.159 512 405z"/>
<path style="fill:#f9dca2; stroke:none;" d="M496 362L497 363L496 362M531 362L532 363L531 362M645 362L646 363L645 362M696.667 362.333L697.333 362.667L696.667 362.333M777.667 362.333L778.333 362.667L777.667 362.333M237.667 363.333L238.333 363.667L237.667 363.333M330 363L331 364L330 363M495 363L496 364L495 363M532 363L533 364L532 363M646 363L647 364L646 363M694 363L695 364L694 363M781 363L782 364L781 363M234.667 364.333L235.333 364.667L234.667 364.333M332 364L333 365L332 364M494 364L495 365L494 364M533 364L534 365L533 364M647 364L646 373L647 373L647 364M692.667 364.333L693.333 364.667L692.667 364.333M782.667 364.333L783.333 364.667L782.667 364.333M232 365L233 366L232 365M334 365L335 366L334 365M493 365L494 366L493 365M534.333 365.667L534.667 366.333L534.333 365.667M690.667 365.333L691.333 365.667L690.667 365.333M785 365L786 366L785 365M230 366L231 367L230 366M336 366L337 367L336 366M689 366L690 367L689 366M786.667 366.333L787.333 366.667L786.667 366.333M227.667 367.333L228.333 367.667L227.667 367.333M337 367L338 368L337 367M492.333 367.667L492.667 368.333L492.333 367.667M535 367L535 370L536 370L535 367M687.667 367.333L688.333 367.667L687.667 367.333M788 367L789 368L788 367M225 368L226 369L225 368M339 368L340 369L339 368M686 368L687 369L686 368M789 368L790 369L789 368M223.667 369.333L224.333 369.667L223.667 369.333M340 369L341 370L340 369M684.667 369.333L685.333 369.667L684.667 369.333M790 369L792 371L792 369L790 369M221.667 370.333L222.333 370.667L221.667 370.333M341 370L342 371L341 370M491 370L491 373L492 373L491 370M536.333 370.667L536.667 371.333L536.333 370.667M683 370L684 371L683 370M220 371L221 372L220 371M342 371L345 373L342 371M682 371L683 372L682 371M792 371L793 372L792 371M219 372L220 373L219 372M606 372L606 375L607 375L606 372M680.667 372.333L681.333 372.667L680.667 372.333M793 372L793 375L794 375L793 372M218.333 373.667L218.667 374.333L218.333 373.667M345 373L346 374L345 373M423 373L423 376L424 376L423 373M679 373L680 374L679 373M346 374L347 375L346 374M490.333 374.667L490.667 375.333L490.333 374.667M645 374L645 377L646 377L645 374M678 374L679 375L678 374M217.333 375.667L217.667 376.333L217.333 375.667M537.333 375.667L537.667 376.333L537.333 375.667M605 375L605 378L606 378L605 375M677.333 375.667L677.667 376.333L677.333 375.667M794 375L794 392L795 392L794 375M347 376L349 378L349 376L347 376M383.333 376.667L383.667 377.333L383.333 376.667M424 377L424 380L425 380L424 377M644.333 377.667L644.667 378.333L644.333 377.667M675 377L675 379L677 377L675 377M216 378L216 395L217 395L216 378M349 378L350 379L349 378M538 378L538 381L539 381L538 378M350.333 379.667L350.667 380.333L350.333 379.667M384 379L384 383L385 383L384 379M489.333 379.667L489.667 380.333L489.333 379.667M674 379L675 380L674 379M425 380L425 384L426 384L425 380M604.333 380.667L604.667 381.333L604.333 380.667M643 380L643 383L644 383L643 380M673 380L674 381L673 380M351 381L352 382L351 381M672 381L673 382L672 381M352.333 382.667L352.667 383.333L352.333 382.667M488 382L488 385L489 385L488 382M603 382L603 387L604 387L603 382M671.333 382.667L671.667 383.333L671.333 382.667M385 383L386 384L385 383M539 383L539 386L540 386L539 383M353 384L354 385L353 384M426 384L426 388L427 388L426 384M642.333 384.667L642.667 385.333L642.333 384.667M670 384L671 385L670 384M354 385L354 388L355 388L354 385M386 385L386 389L387 389L386 385M487 386L487 389L488 389L487 386M540 386L540 389L541 389L540 386M641.333 386.667L641.667 387.333L641.333 386.667M669 386L670 387L669 386M726 386L726 387L732 387L726 386M745 386L745 387L752 387L745 386M266 387L266 388L273 388L266 387M286 387L286 388L294 388L286 387M668.333 387.667L668.667 388.333L668.333 387.667M720 387L720 388L725 388L720 387M754 387L754 388L758 388L754 387M260 388L260 389L265 389L260 388M296 388L296 389L300 389L296 388M355.333 388.667L355.667 389.333L355.333 388.667M602.333 388.667L602.667 389.333L602.333 388.667M717 388L717 389L720 389L717 388M760 388L760 389L764 389L760 388M252 390L252 391L260 390L252 390M301 389L301 390L304 390L301 389M387.333 389.667L387.667 390.333L387.333 389.667M427 389L427 392L428 392L427 389M667.333 389.667L667.667 390.333L667.333 389.667M714 389L714 390L717 390L714 389M764 389L764 390L768 390L764 389M304.667 390.333L305.333 390.667L304.667 390.333M356.333 390.667L356.667 391.333L356.333 390.667M486 390L486 393L487 393L486 390M541 390L541 393L542 393L541 390M640.333 390.667L640.667 391.333L640.333 390.667M712.667 390.333L713.333 390.667L712.667 390.333M768 390L768 391L771 391L768 390M248 391L248 392L251 392L248 391M307 391L308 392L307 391M601.333 391.667L601.667 392.333L601.333 391.667M666.333 391.667L666.667 392.333L666.333 391.667M710.667 391.333L711.333 391.667L710.667 391.333M772.667 391.333L773.333 391.667L772.667 391.333M245 392L245 393L248 393L245 392M309 392L310 393L309 392M388 392L388 396L389 396L388 392M639 392L639 396L640 396L639 392M708.667 392.333L709.333 392.667L708.667 392.333M774 392L774 393L777 393L774 392M242.667 393.333L243.333 393.667L242.667 393.333M311 393L312 394L311 393M357.333 393.667L357.667 394.333L357.333 393.667M428 393L428 396L429 396L428 393M707 393L708 394L707 393M777.667 393.333L778.333 393.667L777.667 393.333M793.333 393.667L793.667 394.333L793.333 393.667M239 394L239 395L242 395L239 394M312 394L313 395L312 394M485 394L485 398L486 398L485 394M665.333 394.667L665.667 395.333L665.333 394.667M706 394L707 395L706 394M779.667 394.333L780.333 394.667L779.667 394.333M236 395L236 396L239 396L236 395M313 395L314 396L313 395M358.333 395.667L358.667 396.333L358.333 395.667M542 395L542 398L543 398L542 395M600 395L600 399L601 399L600 395M705 395L706 396L705 395M782.667 395.333L783.333 395.667L782.667 395.333M792 395L793 396L792 395M217.333 396.667L217.667 397.333L217.333 396.667M234.667 396.333L235.333 396.667L234.667 396.333M314 396L315 397L314 396M389.333 396.667L389.667 397.333L389.333 396.667M638.333 396.667L638.667 397.333L638.333 396.667M664.333 396.667L664.667 397.333L664.333 396.667M704 396L705 397L704 396M784 396L784 397L792 397L784 396M231.667 397.333L232.333 397.667L231.667 397.333M315 397L316 398L315 397M429.333 397.667L429.667 398.333L429.333 397.667M703.333 397.667L703.667 398.333L703.333 397.667M218 398L219 399L218 398M229.667 398.333L230.333 398.667L229.667 398.333M316 398L317 399L316 398M219 399L220 400L219 399M225 399L225 400L228 400L225 399M317 399L318 400L317 399M359 399L359 402L360 402L359 399M390 399L390 402L391 402L390 399M484 399L484 402L485 402L484 399M543 399L543 403L544 403L543 399M599.333 399.667L599.667 400.333L599.333 399.667M637.333 399.667L637.667 400.333L637.333 399.667M663 399L663 404L664 404L663 399M702 399L703 400L702 399M221 400L221 401L224 401L221 400M318.333 400.667L318.667 401.333L318.333 400.667M430 400L430 404L431 404L430 400M701.333 401.667L701.667 402.333L701.333 401.667M319.333 402.667L319.667 403.333L319.333 402.667M391 402L391 405L392 405L391 402M483 402L483 406L484 406L483 402M636 402L636 405L637 405L636 402M360 403L360 407L361 407L360 403M700 403L700 407L701 407L700 403M320.333 404.667L320.667 405.333L320.333 404.667M544.333 404.667L544.667 405.333L544.333 404.667M598 404L599 405L598 404M392 405L392 408L393 408L392 405M635.333 405.667L635.667 406.333L635.333 405.667M662 405L662 419L663 419L662 405M321 406L321 409L322 409L321 406M431.333 406.667L431.667 407.333L431.333 406.667M597 406L597 409L598 409L597 406M545 407L545 410L546 410L545 407M361 408L361 415L362 415L361 408M393.333 408.667L393.667 409.333L393.333 408.667M482.333 408.667L482.667 409.333L482.333 408.667M322 409L322 412L323 412L322 409M432.333 409.667L432.667 410.333L432.333 409.667M513 409L512 413L513 413L513 409M634.333 409.667L634.667 410.333L634.333 409.667M596 410L596 413L597 413L596 410M699 410L700 411L699 410M394 411L394 415L395 415L394 411M481 411L481 415L482 415L481 411M514 411L514 415L515 415L514 411M546 411L546 415L547 415L546 411M633 412L634 413L633 412M323 413L323 418L324 418L323 413M511 413L511 416L512 416L511 413M433.333 414.667L433.667 415.333L433.333 414.667M595 414L595 417L596 417L595 414M700 414L700 417L701 417L700 414M395 415L395 418L396 418L395 415M480 415L480 419L481 419L480 415M515 415L515 418L516 418L515 415M547 415L547 419L548 419L547 415M632.333 415.667L632.667 416.333L632.333 415.667M362 416L362 502L363 502L363 443L362 416M434 416L434 419L435 419L434 416M510 417L510 420L511 420L510 417M701.333 417.667L701.667 418.333L701.333 417.667M396.333 418.667L396.667 419.333L396.333 418.667M594.333 418.667L594.667 419.333L594.333 418.667M631 418L631 421L632 421L631 418M324 419L324 426L325 426L324 419M516 419L516 422L517 422L516 419M479 420L479 424L480 424L479 420M548 420L548 423L549 423L548 420M702 420L703 421L702 420M509 421L509 426L510 426L509 421M630.333 421.667L630.667 422.333L630.333 421.667M663 421L663 426L664 426L663 421M703 421L704 422L703 421M397.333 422.667L397.667 423.333L397.333 422.667M435.333 422.667L435.667 423.333L435.333 422.667M593 422L593 425L594 425L593 422M704.333 422.667L704.667 423.333L704.333 422.667M517 423L517 428L518 428L517 423M398 424L398 427L399 427L398 424M478 424L478 427L479 427L478 424M549 424L549 427L550 427L549 424M705 424L706 425L705 424M436.333 425.667L436.667 426.333L436.333 425.667M592 425L592 428L593 428L592 425M629.333 425.667L629.667 426.333L629.333 425.667M706 425L707 426L706 425M508 426L508 429L509 429L508 426M707 426L708 427L707 426M550 427L550 432L551 432L550 427M628 427L628 431L629 431L628 427M664.333 427.667L664.667 428.333L664.333 427.667M708.667 427.333L709.333 427.667L708.667 427.333M399 428L399 431L400 431L399 428M437 428L437 431L438 431L437 428M477 428L477 431L478 431L477 428M518 428L518 431L519 431L518 428M710 428L713 430L710 428M665.333 429.667L665.667 430.333L665.333 429.667M507 430L508 431L507 430M591.333 430.667L591.667 431.333L591.333 430.667M713.667 430.333L714.333 430.667L713.667 430.333M400.333 431.667L400.667 432.333L400.333 431.667M627 431L627 434L628 434L627 431M715.667 431.333L716.333 431.667L715.667 431.333M519 432L519 435L520 435L519 432M666 432L667 433L666 432M717.667 432.333L718.333 432.667L717.667 432.333M438.333 433.667L438.667 434.333L438.333 433.667M476 433L476 437L477 437L476 433M551 433L551 436L552 436L551 433M590.333 433.667L590.667 434.333L590.333 433.667M720 433L721 434L720 433M401.333 434.667L401.667 435.333L401.333 434.667M506 434L506 437L507 437L506 434M626.333 434.667L626.667 435.333L626.333 434.667M667.333 434.667L667.667 435.333L667.333 434.667M721.667 434.333L722.333 434.667L721.667 434.333M725 435L726 436L725 435M439 436L439 439L440 439L439 436M520 436L520 439L521 439L520 436M668.333 436.667L668.667 437.333L668.333 436.667M727 436L727 437L730 437L727 436M475 437L475 440L476 440L475 437M552 437L552 440L553 440L552 437M589.333 437.667L589.667 438.333L589.333 437.667M625 437L625 440L626 440L625 437M731 437L732 438L731 437M402.333 438.667L402.667 439.333L402.333 438.667M505.333 438.667L505.667 439.333L505.333 438.667M669.333 438.667L669.667 439.333L669.333 438.667M733 438L733 439L736 439L733 438M263 439L263 440L273 440L263 439M284 439L284 440L300 441L284 439M737 439L737 440L740 440L737 439M258 440L258 441L263 441L258 440M440.333 440.667L440.667 441.333L440.333 440.667M521 440L521 443L522 443L521 440M588 440L588 443L589 443L588 440M670 440L671 441L670 440M740 440L741 441L740 440M249 442L249 443L257 442L249 442M303 441L303 442L313 443L303 441M403.333 441.667L403.667 442.333L403.333 441.667M624.333 441.667L624.667 442.333L624.333 441.667M671.333 441.667L671.667 442.333L671.333 441.667M743.667 441.333L744.333 441.667L743.667 441.333M474.333 442.667L474.667 443.333L474.333 442.667M553.333 442.667L553.667 443.333L553.333 442.667M746 442L746 443L749 443L746 442M245 443L245 444L248 444L245 443M315 443L315 444L320 444L315 443M441 443L441 447L442 447L441 443M504 443L504 446L505 446L504 443M672 443L673 444L672 443M750.667 443.333L751.333 443.667L750.667 443.333M243.667 444.333L244.333 444.667L243.667 444.333M320 444L320 445L325 445L320 444M404 444L404 447L405 447L404 444M522 444L522 448L523 448L522 444M623 444L623 447L624 447L623 444M673.333 444.667L673.667 445.333L673.333 444.667M752 444L752 445L755 445L752 444M241.667 445.333L242.333 445.667L241.667 445.333M473 445L473 450L474 450L473 445M554 445L554 449L555 449L554 445M587.333 445.667L587.667 446.333L587.333 445.667M756.667 445.333L757.333 445.667L756.667 445.333M238.667 446.333L239.333 446.667L238.667 446.333M674 446L675 447L674 446M759.667 446.333L760.333 446.667L759.667 446.333M236.667 447.333L237.333 447.667L236.667 447.333M503.333 447.667L503.667 448.333L503.333 447.667M622.333 447.667L622.667 448.333L622.333 447.667M675 447L676 448L675 447M762.667 447.333L763.333 447.667L762.667 447.333M235 448L236 449L235 448M405 448L406 454L407 454L405 448M442 448L442 451L443 451L442 448M586 448L586 451L587 451L586 448M676 448L677 449L676 448M765.667 448.333L766.333 448.667L765.667 448.333M233 449L234 450L233 449M523 449L523 452L524 452L523 449M677 449L678 450L677 449M767.667 449.333L768.333 449.667L767.667 449.333M231.667 450.333L232.333 450.667L231.667 450.333M502 450L502 453L503 453L502 450M621 450L621 454L622 454L621 450M678 450L679 451L678 450M770 450L771 451L770 450M229.667 451.333L230.333 451.667L229.667 451.333M472.333 451.667L472.667 452.333L472.333 451.667M555.333 451.667L555.667 452.333L555.333 451.667M585 451L585 455L586 455L585 451M679 451L680 452L679 451M772.667 451.333L773.333 451.667L772.667 451.333M228 452L229 453L228 452M443 452L443 455L444 455L443 452M524 452L524 455L525 455L524 452M680 452L681 453L680 452M774.667 452.333L775.333 452.667L774.667 452.333M225 455L228 453L225 455M681 453L682 454L681 453M776.667 453.333L777.333 453.667L776.667 453.333M471 454L471 458L472 458L471 454M556 454L556 457L557 457L556 454M620.333 454.667L620.667 455.333L620.333 454.667M682.667 454.333L683.333 454.667L682.667 454.333M778.667 454.333L779.333 454.667L778.667 454.333M224 455L225 456L224 455M407.333 455.667L407.667 456.333L407.333 455.667M501 455L501 458L502 458L501 455M684 455L685 456L684 455M780 455L783 457L780 455M223 456L224 457L223 456M444.333 456.667L444.667 457.333L444.333 456.667M584 456L584 459L585 459L584 456M685 456L686 457L685 456M222 457L223 458L222 457M525 457L525 460L526 460L525 457M619.333 457.667L619.667 458.333L619.333 457.667M686.667 457.333L687.333 457.667L686.667 457.333M783 457L784 458L783 457M221 458L222 459L221 458M408.333 458.667L408.667 459.333L408.333 458.667M500 458L500 461L501 461L500 458M688.667 458.333L689.333 458.667L688.667 458.333M784.667 458.333L785.333 458.667L784.667 458.333M220 459L221 460L220 459M445 459L445 462L446 462L445 459M557 459L557 462L558 462L557 459M583 459L583 463L584 463L583 459M690 459L691 460L690 459M786 459L787 460L786 459M219 460L220 461L219 460M470.333 460.667L470.667 461.333L470.333 460.667M618.333 460.667L618.667 461.333L618.333 460.667M692 460L693 461L692 460M787 460L788 461L787 460M218 461L219 462L218 461M409.333 461.667L409.667 462.333L409.333 461.667M526.333 461.667L526.667 462.333L526.333 461.667M694 461L695 462L694 461M788 461L789 462L788 461M217 462L218 463L217 462M469 462L469 466L470 466L469 462M696 462L697 463L696 462M789 462L790 463L789 462M216.333 463.667L216.667 464.333L216.333 463.667M499.333 463.667L499.667 464.333L499.333 463.667M558 463L558 466L559 466L558 463M617 463L617 466L618 466L617 463M698 463L699 464L698 463M790 463L791 464L790 463M446.333 464.667L446.667 465.333L446.333 464.667M582.333 464.667L582.667 465.333L582.333 464.667M701 464L702 465L701 464M791 464L792 465L791 464M214 465L214 467L216 465L214 465z"/>
<path style="fill:#939aa1; stroke:none;" d="M326 470C313.912 467.722 301.333 465.15 289 465.004C281.125 464.911 272.604 465.587 265 467.782C243.432 474.007 232.494 505.545 249.213 522.815C269.203 543.463 313.842 526.674 323.174 503C327.256 492.642 326.195 480.897 326 470z"/>
<path style="fill:#f9dca2; stroke:none;" d="M410.333 465.667L410.667 466.333L410.333 465.667M527 465L527 468L528 468L527 465M703.667 465.333L704.333 465.667L703.667 465.333M792 465L793 466L792 465M581 466L581 471L582 471L581 466M706.667 466.333L707.333 466.667L706.667 466.333M793 466L794 467L793 466M213 467L214 468L213 467M272 467L272 468L281 468L272 467z"/>
<path style="fill:#ffffff; stroke:none;" d="M281 467.424C270.296 468.83 259.235 469.305 251.468 478.093C241.387 489.499 240.465 513.123 253.093 523.236C261.231 529.753 273.043 530.122 283 528.7C304.664 525.605 320.596 511.745 323.729 490C324.377 485.504 326.776 477.533 323.972 473.433C321.879 470.371 316.303 470.261 313 469.6C302.988 467.598 291.17 466.089 281 467.424z"/>
<path style="fill:#f9dca2; stroke:none;" d="M293 467L293 468L303 468L293 467M447 467L447 470L448 470L447 467M498 467L498 470L499 470L498 467M616.333 467.667L616.667 468.333L616.333 467.667M709.667 467.333L710.333 467.667L709.667 467.333M794 467L795 468L794 467M267 468L267 469L270 469L267 468M307 468L307 469L311 469L307 468M411.333 468.667L411.667 469.333L411.333 468.667M468 468L468 471L469 471L468 468M559.333 468.667L559.667 469.333L559.333 468.667M712.667 468.333L713.333 468.667L712.667 468.333M212 469L213 470L212 469M264.667 469.333L265.333 469.667L264.667 469.333M312 469L312 470L317 470L312 469M528 469L528 472L529 472L528 469M615 469L615 473L616 473L615 469M715.667 469.333L716.333 469.667L715.667 469.333M795 469L796 470L795 469M211.333 470.667L211.667 471.333L211.333 470.667M262.667 470.333L263.333 470.667L262.667 470.333M317 470L317 471L321 471L317 470M718.667 470.333L719.333 470.667L718.667 470.333M796 470L797 471L796 470M259.667 471.333L260.333 471.667L259.667 471.333M322 471L322 472L325 473L322 471M412.333 471.667L412.667 472.333L412.333 471.667M448 471L448 474L449 474L448 471M497 471L497 475L498 475L497 471M560 471L560 474L561 474L560 471M580 471L580 475L581 475L580 471M722 471L723 472L722 471M797.333 471.667L797.667 472.333L797.333 471.667M210.333 472.667L210.667 473.333L210.333 472.667M257.667 472.333L258.333 472.667L257.667 472.333M467.333 472.667L467.667 473.333L467.333 472.667M724 472L724 473L727 473L724 472M256 473L257 474L256 473M529 473L529 476L530 476L529 473M614.333 473.667L614.667 474.333L614.333 473.667M728.667 473.333L729.333 473.667L728.667 473.333M798 473L799 474L798 473M209 474L210 475L209 474M254.667 474.333L255.333 474.667L254.667 474.333M413 474L413 477L414 477L413 474M730.667 474.333L731.333 474.667L730.667 474.333M253 475L254 476L253 475M449 475L449 478L450 478L449 475M579 475L579 478L580 478L579 475M734.667 475.333L735.333 475.667L734.667 475.333M799 475L800 476L799 475M208.333 476.667L208.667 477.333L208.333 476.667M252 476L253 477L252 476M466 476L466 479L467 479L466 476M496.333 476.667L496.667 477.333L496.333 476.667M561 476L561 480L562 480L561 476M613 476L613 479L614 479L613 476M736 476L736 477L739 477L736 476M251 477L252 478L251 477M740.667 477.333L741.333 477.667L740.667 477.333M800 477L801 478L800 477M250 478L249 481L250 478M414 478L414 481L415 481L414 478M450 478L450 482L451 482L450 478M530 478L531 479L530 478M743 478L744 479L743 478M207.333 479.667L207.667 480.333L207.333 479.667M495 479L495 483L496 483L495 479M578 479L578 482L579 482L578 479M612 479L612 482L613 482L612 479M745 479L745 480L748 480L745 479M562 480L562 483L563 483L562 480M748.667 480.333L749.333 480.667L748.667 480.333M801 480L802 481L801 480M248 481L249 482L248 481M415 481L415 484L416 484L415 481M465.333 481.667L465.667 482.333L465.333 481.667M531 481L531 484L532 484L531 481M750.667 481.333L751.333 481.667L750.667 481.333M206.333 482.667L206.667 483.333L206.333 482.667M247.333 482.667L247.667 483.333L247.333 482.667M577 482L577 486L578 486L577 482M611.333 482.667L611.667 483.333L611.333 482.667M753 482L754 483L753 482M802 482L803 483L802 482M451.333 483.667L451.667 484.333L451.333 483.667M494 483L494 487L495 487L494 483M754.667 483.333L755.333 483.667L754.667 483.333M246.333 484.667L246.667 485.333L246.333 484.667M324 484L324 490L325 490L324 484M756 484L757 485L756 484M803 484L803 487L804 487L803 484M205 485L205 488L206 488L205 485M416.333 485.667L416.667 486.333L416.333 485.667M464 485L464 488L465 488L464 485M532.333 485.667L532.667 486.333L532.333 485.667M563 485L563 488L564 488L563 485M610 485L610 489L611 489L610 485M757.667 485.333L758.333 485.667L757.667 485.333M245.333 486.667L245.667 487.333L245.333 486.667M452 486L452 490L453 490L452 486M759 486L760 487L759 486M576 487L576 490L577 490L576 487M760 487L761 488L760 487M417.333 488.667L417.667 489.333L417.333 488.667M493 488L493 492L494 492L493 488M761 488L762 489L761 488M204 489L204 495L205 495L204 489M244 489L244 494L245 494L244 489M463.333 489.667L463.667 490.333L463.333 489.667M533 489L533 493L534 493L533 489M564.333 489.667L564.667 490.333L564.333 489.667M609.333 489.667L609.667 490.333L609.333 489.667M762 489L763 490L762 489M804 489L804 494L805 494L804 489M575 490L575 494L576 494L575 490M763 490L764 491L763 490M323 491L323 497L324 497L323 491M418 491L418 494L419 494L418 491M453 491L453 494L454 494L453 491M764 491L765 492L764 491M462 492L462 496L463 496L462 492M608 492L608 495L609 495L608 492M492.333 493.667L492.667 494.333L492.333 493.667M534 493L534 496L535 496L534 493M765 493L766 494L765 493M419 494L419 497L420 497L419 494M565.333 494.667L565.667 495.333L565.333 494.667M243 495L244 511L245 511L243 495M454 495L454 498L455 498L454 495M574 495L574 498L575 498L574 495M607.333 495.667L607.667 496.333L607.333 495.667M766.333 495.667L766.667 496.333L766.333 495.667M491 496L491 500L492 500L491 496M420 497L420 500L421 500L420 497M461 497L461 500L462 500L461 497M535 497L535 500L536 500L535 497M322.333 498.667L322.667 499.333L322.333 498.667M455 498L455 502L456 502L455 498M566 498L566 501L567 501L566 498M573 498L573 501L574 501L573 498M606 498L606 501L607 501L606 498M767 498L767 501L768 501L767 498M321.333 501.667L321.667 502.333L321.333 501.667M421 501L421 504L422 504L421 501M490 501L490 504L491 504L490 501M536 501L536 505L537 505L536 501M456 502L456 506L457 506L456 502M460.333 502.667L460.667 503.333L460.333 502.667M567 502L567 505L568 505L567 502M605.333 502.667L605.667 503.333L605.333 502.667M320.333 503.667L320.667 504.333L320.333 503.667M572 503L572 506L573 506L572 503M422.333 504.667L422.667 505.333L422.333 504.667M489 504L489 509L490 509L489 504M767 504L767 507L768 507L767 504M804 504L804 511L805 511L804 504M319.333 505.667L319.667 506.333L319.333 505.667M537 505L537 508L538 508L537 505M604.333 505.667L604.667 506.333L604.333 505.667M459.333 506.667L459.667 507.333L459.333 506.667M568 506L568 509L569 509L568 506M571 506L571 509L572 509L571 506M318.333 507.667L318.667 508.333L318.333 507.667M363 507L363 513L364 513L363 507M457 507L459 510L457 507M204 508L204 516L205 516L204 508M423.333 508.667L423.667 509.333L423.333 508.667M603.333 508.667L603.667 509.333L603.333 508.667M317 509L318 510L317 509M570 509L569 513L570 509M766.333 509.667L766.667 510.333L766.333 509.667M316 510L314 514L316 510M488 510L488 513L489 513L488 510M424.333 511.667L424.667 512.333L424.333 511.667M538.333 511.667L538.667 512.333L538.333 511.667M602.333 511.667L602.667 512.333L602.333 511.667M245.333 512.667L245.667 513.333L245.333 512.667M765 512L766 513L765 512M803 512L803 515L804 515L803 512M364 513L364 516L365 516L364 513M487 513L487 517L488 517L487 513M246.333 514.667L246.667 515.333L246.333 514.667M312 514L312 516L314 514L312 514M425 514L425 517L426 517L425 514M539 514L539 518L540 518L539 514M601 514L601 517L602 517L601 514M764 514L765 515L764 514M763.333 515.667L763.667 516.333L763.333 515.667M205 516L205 519L206 519L205 516M247.333 516.667L247.667 517.333L247.333 516.667M311 516L312 517L311 516M663 516L663 517L669 517L663 516M802.333 516.667L802.667 517.333L802.333 516.667M309.667 517.333L310.333 517.667L309.667 517.333M365.333 517.667L365.667 518.333L365.333 517.667M426.333 517.667L426.667 518.333L426.333 517.667M600.333 517.667L600.667 518.333L600.333 517.667M662 517L663 518L662 517M670 517L670 518L673 518L670 517M762 517L763 518L762 517M248 518L249 519L248 518M308 518L309 519L308 518M486 518L486 521L487 521L486 518M540 518L540 522L541 522L540 518M661 518L662 519L661 518M673.667 518.333L674.333 518.667L673.667 518.333M761 518L762 519L761 518M801.333 518.667L801.667 519.333L801.333 518.667M249.333 519.667L249.667 520.333L249.333 519.667M306.667 519.333L307.333 519.667L306.667 519.333M660 519L660 522L661 522L660 519M676 519L677 520L676 519M760 519L761 520L760 519M206 520L206 523L207 523L206 520M305 520L306 521L305 520M366.333 520.667L366.667 521.333L366.333 520.667M427 520L427 523L428 523L427 520M599 520L599 523L600 523L599 520M678.667 520.333L679.333 520.667L678.667 520.333M759 520L760 521L759 520M250 521L251 522L250 521M303.667 521.333L304.333 521.667L303.667 521.333M680 521L680 522L683 522L680 521M757.667 521.333L758.333 521.667L757.667 521.333M800.333 521.667L800.667 522.333L800.333 521.667M251 522L252 523L251 522M302 522L303 523L302 522M367.333 522.667L367.667 523.333L367.333 522.667M485 522L485 525L486 525L485 522M683.667 522.333L684.333 522.667L683.667 522.333M756 522L757 523L756 522M207 523L207 526L208 526L207 523M252.667 523.333L253.333 523.667L252.667 523.333M300 523L301 524L300 523M541 523L541 526L542 526L541 523M598.333 523.667L598.667 524.333L598.333 523.667M659 523L659 537L660 537L659 523M686.667 523.333L687.333 523.667L686.667 523.333M754.667 523.333L755.333 523.667L754.667 523.333M799.333 523.667L799.667 524.333L799.333 523.667M254 524L255 525L254 524M298 524L299 525L298 524M428.333 524.667L428.667 525.333L428.333 524.667M688 524L688 525L692 525L688 524M752.667 524.333L753.333 524.667L752.667 524.333M255.667 525.333L256.333 525.667L255.667 525.333M295.667 525.333L296.333 525.667L295.667 525.333M368 525L369 526L368 525M692 525L692 526L695 526L692 525M749 525L749 526L752 526L749 525M208.333 526.667L208.667 527.333L208.333 526.667M257 526L258 527L257 526M292.667 526.333L293.333 526.667L292.667 526.333M369.333 526.667L369.667 527.333L369.333 526.667M484 526L484 530L485 530L484 526M542 526L542 529L543 529L542 526M697.667 526.333L698.333 526.667L697.667 526.333M747.667 526.333L748.333 526.667L747.667 526.333M798 526L799 527L798 526M259.667 527.333L260.333 527.667L259.667 527.333M288 527L288 528L291 528L288 527M429 527L429 530L430 530L429 527M597.333 527.667L597.667 528.333L597.333 527.667M700 527L700 528L705 528L700 527M743 527L743 528L746 528L743 527M797.333 527.667L797.667 528.333L797.333 527.667M262.667 528.333L263.333 528.667L262.667 528.333M284 528L284 529L287 529L284 528M370.333 528.667L370.667 529.333L370.333 528.667M706 528L706 529L710 529L706 528M737 528L737 529L742 529L737 528M209 529L210 530L209 529M267 529L267 530L281 530L267 529M714 529L714 530L735 530L714 529M796 529L797 530L796 529M210.333 530.667L210.667 531.333L210.333 530.667M371.333 530.667L371.667 531.333L371.333 530.667M430.333 530.667L430.667 531.333L430.333 530.667M483 530L483 533L484 533L483 530M543 530L543 533L544 533L543 530M596.333 530.667L596.667 531.333L596.333 530.667M795 530L796 531L795 530M327 531L328 532L327 531M211.333 532.667L211.667 533.333L211.333 532.667M326 532L327 533L326 532M328 532L329 533L328 532M372.333 532.667L372.667 533.333L372.333 532.667M794 532L795 533L794 532M325 533L326 534L325 533M329 533L330 534L329 533M431 533L431 536L432 536L431 533M595 533L595 536L596 536L595 533M793 533L794 534L793 533M212.333 534.667L212.667 535.333L212.333 534.667M324 534L325 535L324 534M323 535L324 536L323 535M330 535L331 536L330 535M373 535L373 540L374 540L373 535M482 535L482 539L483 539L482 535M544 535L544 539L545 539L544 535M792 535L793 536L792 535M213 536L214 537L213 536M322 536L323 537L322 536M791 536L792 537L791 536M214.333 537.667L214.667 538.333L214.333 537.667M321 537L322 538L321 537M331 537L332 538L331 537M432.333 537.667L432.667 538.333L432.333 537.667M594.333 537.667L594.667 538.333L594.333 537.667M660 537L660 540L661 540L660 537M790 537L791 538L790 537M320 538L321 539L320 538M789 538L790 539L789 538M215 539L216 540L215 539M319 539L320 540L319 539M332 539L333 540L332 539M481 539L481 542L482 542L481 539M593 539L593 542L594 542L593 539M788 539L789 540L788 539M216 540L217 541L216 540M318 540L319 541L318 540M372.333 540.667L372.667 541.333L372.333 540.667M433.333 540.667L433.667 541.333L433.333 540.667M545 540L545 543L546 543L545 540M787 540L788 541L787 540M217 541L218 542L217 541M333 541L334 542L333 541M661.333 541.667L661.667 542.333L661.333 541.667M786 541L787 542L786 541M218 542L219 543L218 542M315 542L316 543L315 542M334 542L335 543L334 542M371 542L372 543L371 542M785 542L786 543L785 542M219 543L220 544L219 543M314 543L315 544L314 543M370 543L371 544L370 543M434.333 543.667L434.667 544.333L434.333 543.667M480 543L480 546L481 546L480 543M546 543L546 546L547 546L546 543M592 543L592 546L593 546L592 543M662 543L663 544L662 543M784 543L785 544L784 543M220 544L221 545L220 544M313 544L314 545L313 544M335 544L336 545L335 544M369 544L370 545L369 544M663 544L664 545L663 544M782.667 544.333L783.333 544.667L782.667 544.333M221 545L222 546L221 545M311.667 545.333L312.333 545.667L311.667 545.333M336.333 545.667L336.667 546.333L336.333 545.667M367.667 545.333L368.333 545.667L367.667 545.333M664 545L665 546L664 545M781 545L782 546L781 545M222 546L223 547L222 546M310 546L311 547L310 546M366 546L367 547L366 546M435.333 546.667L435.667 547.333L435.333 546.667M479 546L479 549L480 549L479 546M547 546L547 549L548 549L547 546M591.333 546.667L591.667 547.333L591.333 546.667M665.667 546.333L666.333 546.667L665.667 546.333M778 548L781 546L778 548M223 547L224 548L223 547M308 547L309 548L308 547M337 547L338 548L337 547M364.667 547.333L365.333 547.667L364.667 547.333M667 547L668 548L667 547M224.667 548.333L225.333 548.667L224.667 548.333M307 548L308 549L307 548M338 548L339 549L338 548M363 548L364 549L363 548M590.333 548.667L590.667 549.333L590.333 548.667M668.667 548.333L669.333 548.667L668.667 548.333M777 548L778 549L777 548M226 549L227 550L226 549M305 549L306 550L305 549M339.333 549.667L339.667 550.333L339.333 549.667M361.667 549.333L362.333 549.667L361.667 549.333M436 549L437 550L436 549M478.333 549.667L478.667 550.333L478.333 549.667M548.333 549.667L548.667 550.333L548.333 549.667M670.667 549.333L671.333 549.667L670.667 549.333M775 549L776 550L775 549M227.667 550.333L228.333 550.667L227.667 550.333M303.667 550.333L304.333 550.667L303.667 550.333M360 550L361 551L360 550M589.333 550.667L589.667 551.333L589.333 550.667M672.667 550.333L673.333 550.667L672.667 550.333M773.667 550.333L774.333 550.667L773.667 550.333M229 551L230 552L229 551M301 551L302 552L301 551M340 551L341 552L340 551M357 553L360 551L357 553M437 551L438 552L437 551M477 551L478 552L477 551M549 551L550 552L549 551M675 551L676 552L675 551M771.667 551.333L772.333 551.667L771.667 551.333M230.667 552.333L231.333 552.667L230.667 552.333M299.667 552.333L300.333 552.667L299.667 552.333M341.667 552.333L342.333 552.667L341.667 552.333M438.667 552.333L439.333 552.667L438.667 552.333M476 552L477 553L476 552M550 552L551 553L550 552M587.667 552.333L588.333 552.667L587.667 552.333M677.667 552.333L678.333 552.667L677.667 552.333M769.667 552.333L770.333 552.667L769.667 552.333M232.667 553.333L233.333 553.667L232.667 553.333M297 553L298 554L297 553M343 553L346 555L346 554L343 553M355.667 553.333L356.333 553.667L355.667 553.333M440 553L441 554L440 553M474.667 553.333L475.333 553.667L474.667 553.333M551.667 553.333L552.333 553.667L551.667 553.333M586 553L587 554L586 553M680.667 553.333L681.333 553.667L680.667 553.333M767.667 553.333L768.333 553.667L767.667 553.333M234.667 554.333L235.333 554.667L234.667 554.333M294.667 554.333L295.333 554.667L294.667 554.333M353.667 554.333L354.333 554.667L353.667 554.333M441 554L441 555L444 555L441 554M471 554L471 555L474 555L471 554M553 554L553 555L556 555L553 554M582 554L582 555L585 555L582 554M682 554L682 555L685 555L682 554M764.667 554.333L765.333 554.667L764.667 554.333M237.667 555.333L238.333 555.667L237.667 555.333M291.667 555.333L292.333 555.667L291.667 555.333M346 555L346 556L352 556L346 555M559 555L560 556L559 555M687.667 555.333L688.333 555.667L687.667 555.333M761.667 555.333L762.333 555.667L761.667 555.333M239.667 556.333L240.333 556.667L239.667 556.333M288.667 556.333L289.333 556.667L288.667 556.333M690 556L690 557L693 557L690 556M758 556L758 557L761 557L758 556M242 557L242 558L245 558L242 557M283 557L283 558L288 558L283 557M694 557L694 558L698 558L694 557M753 557L753 558L757 558L753 557M246 558L246 559L250 559L246 558M279 558L279 559L283 559L279 558M699 558L699 559L703 559L699 558M749 558L749 559L753 559L749 558M251 559L251 560L278 560L251 559M705 559L705 560L712 560L705 559M732 560L732 561L748 560L732 560M712 560L712 561L725 561L712 560M729 560L730 561L729 560M777 600.424C758.382 602.869 739.816 604.48 723 613.862C719.091 616.043 701.155 626.806 713.059 631.218C717.992 633.047 725.858 630.45 731 630C745.683 628.714 760.234 627.93 775 628.001C781.9 628.034 791.124 628.462 796.811 632.853C803.289 637.856 801.327 646.054 800.274 653C797.748 669.665 790.893 686.355 784.796 702C783.233 706.012 774.889 722.982 785.019 722.508C794.058 722.086 803.423 708.709 807.964 702C821.48 682.03 833.88 655.659 833.999 631C834.029 624.93 835.731 615.404 832.142 610.133C829.287 605.94 822.695 604.07 818 603.015C805.223 600.142 790.043 598.712 777 600.424z"/>
<path style="fill:#fc9e0a; stroke:none;" d="M771 602.424C762.509 603.54 754.326 604.688 746 606.884C740.487 608.339 735.234 610.339 730 612.579C726.686 613.997 705.796 623.171 712.619 628.821C716.822 632.302 727.996 628.282 733 628.039C750.581 627.184 784.344 618.822 798.867 632.275C804.503 637.496 803.327 646.198 801.999 653C798.855 669.111 793.488 684.78 787.4 700C786.155 703.113 777.634 719.932 785.148 720.338C793.148 720.77 803.081 705.69 807.14 700C820.292 681.562 828.899 658.379 832 636C833.05 628.419 834.9 618.045 830.583 611.133C827.729 606.565 820.846 605.581 816 604.375C802.084 600.912 785.228 600.555 771 602.424z"/>
<path style="fill:#f9dca2; stroke:none;" d="M180.228 610.743C175.496 612.923 176.931 619.666 179.434 622.961C186.01 631.617 196.941 638.872 205.425 645.66C240.497 673.72 278.964 695.869 320 713.988C428.412 761.858 560.999 760.916 671 719.425C695.71 710.105 719.332 699.05 742 685.449C751.646 679.662 764.291 673.639 771.606 664.907C780.474 654.319 769.54 643.687 758 647.22C742.052 652.102 726.733 659.708 711 665.308C687.269 673.754 662.526 679.88 638 685.5C537.688 708.488 428.26 702.818 330 672.795C293.087 661.516 254.672 648.114 221 629C212.049 623.919 202.958 619.073 194 614C190.095 611.789 184.856 608.611 180.228 610.743z"/>
<path style="fill:#fc9e0a; stroke:none;" d="M183.059 611.902C177.624 612.545 179.013 618.936 181.318 621.999C187.117 629.705 196.748 636.212 204.17 642.373C232.768 666.116 265.405 686.766 299 702.68C410.839 755.658 543.276 762.027 660 721.505C688.227 711.705 715.372 699.408 741 684C750.512 678.281 763.619 671.772 770.566 662.91C776.821 654.932 768.809 646.403 760 648.61C735.344 654.788 711.527 667.361 687 674.72C564.053 711.607 436.101 706.858 314 669.565C281.877 659.754 250.974 645.94 221 630.92C212.198 626.509 203.552 621.725 195 616.85C191.611 614.917 187.197 611.413 183.059 611.902z"/>
</svg>
