<?xml version="1.0" standalone="yes"?>
<svg xmlns="http://www.w3.org/2000/svg" width="400" height="400">
<path style="fill:#010101; stroke:none;" d="M0 0L0 400L400 400L400 0L0 0z"/>
<path style="fill:#1f71c1; stroke:none;" d="M18 127L18 138L90 138L90 127L18 127M99 127L99 138L200 138C195.266 128.741 182.351 127.004 173 127L99 127M219 127L219 138L281 138L278 127L219 127M323 127L320 138L381 138L381 127L323 127M18 146L18 157L90 157L90 146L18 146M99 146L99 157L212 157C209.953 141.872 196.144 146 184 146L99 146M219 146L219 157L288 157L283.49 147.028L266 146L219 146M316 146L313 157L381 157L381 146L316 146M38 166L38 176L70 176L70 166L38 166M119 166L119 176L151 176L151 166L119 166M179 166L179 176C190.627 176 212.323 181.482 213 166L179 166M239 166L239 176L295 176L290.581 167.028L276 166L239 166M309 166L306 176L362 176L362 166L309 166M38 185L38 196L70 196L70 185L38 185M119 185L119 196L179 196C191.307 196 200.93 197.756 207 185L119 185M239 185L239 196C246.063 196 266.306 199.372 271 194L272 194C275.889 198.451 289.319 196 295 196L362 196L362 185L318 185C310.801 185 303.845 183.123 301 191C296.576 183.31 290.056 185 282 185L239 185M38 204L38 215L70 215L70 204L38 204M119 204L119 215L207 215C200.93 202.244 191.307 204 179 204L119 204M239 204L239 215L271 215L271 204L239 204M276 204L279.699 213.972L292 215L323 215L326 204L276 204M330 204L330 215L362 215L362 204L330 204M38 224L38 234L70 234L70 224L38 224M119 224L119 234L151 234L151 224L119 224M179 224L179 234L213 234C212.323 218.518 190.627 224 179 224M239 224L239 234L271 234L271 224L239 224M283 224C285.225 239.051 304.132 234 316 234L319 224L283 224M330 224L330 234L362 234L362 224L330 224M19 243L19 254L90 254L90 243L19 243M99 243L99 254L184 254C196.144 254 209.953 258.128 212 243L99 243M220 243L220 254L271 254L271 243L220 243M289 243C292.976 254.754 297.506 254 309 254L312 243L289 243M330 243L330 254L382 254L382 243L330 243M19 262L19 273L90 273L90 262L19 262M99 262L99 273L173 273C182.351 272.996 195.266 271.259 200 262L99 262M220 262L220 273L271 273L271 262L220 262M296 262L300 273L302 273L305 262L296 262M330 262L330 273L382 273L382 262L330 262z"/>
</svg>
