<?xml version="1.0" standalone="yes"?>
<svg xmlns="http://www.w3.org/2000/svg" width="840" height="859">
<path style="fill:#f6f6f6; stroke:none;" d="M0 0L0 859L840 859L840 0L0 0z"/>
<path style="fill:#fb9f63; stroke:none;" d="M518 266L518 267L561 267C549.079 261.271 530.649 264.401 518 266M562 266L562 267L575 269L575 268L562 266M504 268L504 269L514 269L514 267L504 268z"/>
<path style="fill:#f4520e; stroke:none;" d="M369 352C381.998 350.279 394.405 341.36 406.985 337.591C445.021 326.196 489.004 314.639 529 319.129C538.12 320.153 551.623 322.325 558.345 329.299C573.887 345.426 561.241 373.009 544 382C551.661 385.208 563.129 380.204 571.036 379.124C602.305 374.853 639 359.072 639 323C639 316.112 638.531 309.963 634.946 303.87C621.371 280.794 592.373 273.02 568.089 268.741C511.24 258.723 455.309 278.787 409.579 311.936C395.805 321.921 376.22 336.105 369 352z"/>
<path style="fill:#fb9f63; stroke:none;" d="M494 270L494 271L502 271L502 269L494 270M577 269L577 271L582 271L577 269M487 271L487 273L492 273L492 271L487 271M585 271L585 273L589 273L589 271L585 271M481 273L481 275L484 275L484 273L481 273M592 273L592 275L595 275L595 273L592 273M473 275L473 277L477 277L477 275L473 275M598 275L598 277L600 277L600 275L598 275M468 279L473 278L468 279M602 277L602 279L606 279L606 277L602 277M450 285L450 286L468 280C462.516 277.924 455.203 283.041 450 285M606 279L606 280L619 287C616.399 282.792 610.879 279.666 606 279M446 287L446 288L450 286L446 287M619.667 287.333L620.333 287.667L619.667 287.333M443 290L446 288L443 290M621 288L621 290L623 290L623 288L621 288M439 292L442 290L439 292M623 290L630 296L623 290M435 293L435 294L439 292L435 293M433 294L433 296L435 296L435 294L433 294M429 296L429 298L431 298L431 296L429 296M630 296L638.544 314L635 346L636 346C641.77 332.52 647.089 304.683 630 296M426 298L426 300L429 300L429 298L426 298M423 300L423 302L425 302L425 300L423 300M420 304L423 303L420 304M406 314L420 304C414.833 305.239 408.45 309.179 406 314M404.667 314.333L405.333 314.667L404.667 314.333M724 314L724 315L748 317C741.486 312.359 731.622 314 724 314M403 315L402 317L404 317L403 315M713 316L713 317L723 316L713 316z"/>
<path style="fill:#f4520e; stroke:none;" d="M640 363C653.242 362.69 666.85 356.453 680 354.325C700.262 351.046 721.828 352.386 742 355.561C750.425 356.887 758.769 358.171 767 360.59C769.307 361.269 773.973 363.706 775.968 361.353C778.398 358.489 775.857 350.329 775.231 347C771.645 327.917 759.215 318.772 741 315.375C713.255 310.201 684.579 324.271 663.116 339.964C654.77 346.066 644.677 353.516 640 363z"/>
<path style="fill:#fb9f63; stroke:none;" d="M400 317L400 319L402 319L402 317L400 317M704 318L704 319L708 318L704 318M752 317L752 319L754 319L754 317L752 317M395 323L400 319L395 323M493 320L493 321L513 321L513 319L493 320M518 319L518 321L534 321L518 319M698 319L698 321L700 321L700 319L698 319M756 319L759 321L756 319M477 321L477 323L484 323L484 321L477 321M539 321L539 323L544 323L544 321L539 321M692 321L692 323L694 323L694 321L692 321M393 323L393 325L395 325L395 323L393 323M463 323L463 325L471 325L471 323L463 323M547 323L550 325L547 323M687 323L687 325L689 325L689 323L687 323M763 323L763 325L765 325L763 323M391 325L391 327L393 327L393 325L391 325M452 325L452 327L458 327L458 325L452 325M552 325L552 327L554 327L554 325L552 325M683.333 325.667L683.667 326.333L683.333 325.667M389 327L389 329L391 327L389 327M442 327L442 329L449 328L442 327M554 327L554 328C570.124 339.72 559.97 354.205 558 369C567.093 360.545 570.041 329.695 554 327M679 327L679 329L681 327L679 327M387.667 329.333L388.333 329.667L387.667 329.333M396 341L396 342L442 330C430.387 325.174 407.61 337.825 396 341M675 329L675 331L677 331L677 329L675 329M767.667 329.333L768.333 329.667L767.667 329.333M385.667 331.333L386.333 331.667L385.667 331.333M673.667 331.333L674.333 331.667L673.667 331.333M769 331L769 333L771 333L769 331M671.667 332.333L672.333 332.667L671.667 332.333M383.667 333.333L384.333 333.667L383.667 333.333M669 333L669 335L671 335L671 333L669 333M771 334L773 337L771 334M381.667 335.333L382.333 335.667L381.667 335.333M667.667 335.333L668.333 335.667L667.667 335.333M666 336L665 338L667 338L666 336M379.667 337.333L380.333 337.667L379.667 337.333M378 338L377 340L379 340L378 338M664 338L663 340L665 340L664 338M773 338L776 363C781.141 358.508 776.696 342.647 773 338M376 340L374 344L376 340M661 340L660 342L662 342L661 340M392 343L392 344L396 343L392 343M658.333 342.667L658.667 343.333L658.333 342.667M372 344L372 346L374 346L374 344L372 344M387 344L387 346L390 346L390 344L387 344M656.333 344.667L656.667 345.333L656.333 344.667M370 346L364 357L373 353L373 352L369 352L372 346L370 346M383 346L383 348L385 348L385 346L383 346M633 346L631 352L632 352L635 346L633 346M378 348L378 350L381 350L381 348L378 348M373 352L377 351L373 352z"/>
<path style="fill:#f4520e; stroke:none;" d="M367 352L366 354L368 354L367 352z"/>
<path style="fill:#fb9f63; stroke:none;" d="M629 352L629 354L631 352L629 352M669 356L669 357L723 354C707.221 347.379 685.305 355.255 669 356M627.667 354.333L628.333 354.667L627.667 354.333M723 354L723 355L751 357L723 354M625.667 356.333L626.333 356.667L625.667 356.333M644.667 356.333L645.333 356.667L644.667 356.333M665 357L665 358L668 358L665 357M751 357L751 358L759 359L759 358L751 357M623.667 358.333L624.333 358.667L623.667 358.333M642.667 358.333L643.333 358.667L642.667 358.333M660 358L660 359L665 359L660 358M617 362L617 363L623 359L617 362M652 360L652 361L659 360L652 360M761 359L767 361L761 359M640.667 360.333L641.333 360.667L640.667 360.333M639 361L638 365L643 364L639 361M646 362L646 363L650 361L646 362M769 361L773 363L773 362L769 361M614 365L617 363L614 365M611 367L614 365L611 367M608 367L608 369L610 369L610 367L608 367M556 369L556 371L558 371L558 369L556 369M604 369L604 371L606 371L606 369L604 369M554 371L554 373L556 373L556 371L554 371M598 373L602 372L598 373M552 373L552 375L554 375L554 373L552 373M592 373L592 375L596 375L596 373L592 373M550 375L550 377L552 377L552 375L550 375M585 375L585 377L591 376L585 375M548 377L546 381L550 377L548 377M577 377L577 379L585 378L577 377M542 385L577 380C569.952 377.043 558.377 381.311 551 382.532C547.43 383.123 544.406 382.03 542 385M544.667 381.333L545.333 381.667L544.667 381.333z"/>
<path style="fill:#8a9fcc; stroke:none;" d="M92 410L92 411L326 411L326 415L327 415L328 409C276.333 408.572 224.669 408.75 173 408.999C146.488 409.127 118.152 405.073 92 410M343 417C367.252 406.578 397.334 411 424 411C431.823 411 446.639 408.181 453 413C454.696 408.5 432.891 408.992 429 409C408.375 409.04 387.648 410.362 367 409.995C358.714 409.848 347.417 407.44 343 417M549 414L549 415L562 411C557.346 409.106 553.063 411.64 549 414M582 410L582 411L602 411L582 410M625 410L625 411L645 411L625 410M665 410L669 415L665 410M90 411L89 413L91 413L90 411z"/>
<path style="fill:#03359a; stroke:none;" d="M66 446L131 446C136.431 446 150.423 443.515 154.498 447.603C157.175 450.29 154.731 455.023 153.872 458C151.5 466.222 149.38 474.664 147.451 482.999C142.102 506.11 135.726 529.078 129.445 552C125.969 564.685 120.045 578.804 120 592L189 592C189.653 581.942 194.008 571.462 196.549 561.714C203.099 536.592 210.082 511.177 215.759 485.834C217.843 476.532 220.112 467.201 222.694 458C223.682 454.481 224.007 449.951 227.148 447.603C232.882 443.319 247.094 446 254 446C279.852 446 299.078 446.907 317.144 425.424C320.907 420.951 325.143 417.037 326 411L129 411C117.905 411 102.957 408.366 92.3002 411.474C80.2002 415.003 67.2384 433.974 66 446M283 592L326 592L342.683 590.972L346.51 582L353.539 558L372.412 490.17L381 457L382 457C388.87 478.795 388.887 504.164 391.171 527C393.401 549.312 398.859 571.717 400 594L458 594C466.717 594 477.666 595.801 485.674 591.699C499.246 584.748 506.973 566.485 514.709 554.192C527.959 533.138 541.759 512.401 555.294 491.525C562.092 481.04 567.861 467.637 577 459L569.155 490.17L549.563 558.845L540 594L592 594C596.821 594 607.298 595.972 611.298 592.972C613.993 590.951 614.541 586.005 615.505 583C618.266 574.39 620.598 565.694 623.401 557.13C634.566 523.03 644.447 488.343 654.692 453.985C657.682 443.959 660.717 433.954 663.965 424.001C664.848 421.297 667.952 415.204 665.954 412.589C662.651 408.265 645.124 411 640 411L582 411C573.746 411 562.453 408.994 554.804 412.419C539.347 419.34 531.581 433.452 522.986 447.116C511.012 466.152 498.775 484.995 486.748 503.985C481.254 512.66 475.164 528.97 466 534C465.997 504.27 459.585 473.401 456.129 443.961C455.327 437.135 454.529 429.757 454.054 422.985C453.838 419.901 454.894 415.221 452.821 412.603C450.289 409.407 441.623 411 438 411L395 411C382.975 411 360.483 406.678 349.888 412.554C329.949 423.612 322.908 445.305 317.424 466C310.969 490.363 304.508 514.892 297.041 539C291.992 555.299 283.506 574.873 283 592z"/>
<path style="fill:#8a9fcc; stroke:none;" d="M86 413L86 415L88 415L88 413L86 413M84.3333 415.667L84.6667 416.333L84.3333 415.667M324 415L323 419L324 415M546 415L546 417L548 417L548 415L546 415M82.3333 417.667L82.6667 418.333L82.3333 417.667M341.333 417.667L341.667 418.333L341.333 417.667M544 417L544 419L546 419L546 417L544 417M665 417L665 421L667 421L667 417L665 417M80 419L81 420L80 419M322.333 419.667L322.667 420.333L322.333 419.667M339 419L340 420L339 419M542 419L541 421L543 421L542 419M454 420L454 428L456 428L456 420L454 420M78 421L79 422L78 421M320 421L320 423L322 421L320 421M337.667 421.333L338.333 421.667L337.667 421.333M539 421L535 428L541 421L539 421M76.6667 423.333L77.3333 423.667L76.6667 423.333M318 423L318 425L320 425L320 423L318 423M335.667 423.333L336.333 423.667L335.667 423.333M664 423L663 428L664 428L664 423M74 425L74 427L76 427L76 425L74 425M316 425L316 428L318 425L316 425M333 425L333 427L335 427L335 425L333 425M331 427L329 432L333 427L331 427M73 428L72 430L74 430L73 428M314 428L314 430L316 430L316 428L314 428M533 428L533 430L535 430L535 428L533 428M662 428L656 452L657 452L662 428M310 433L314 430L310 433M71 431L70 434L71 431M531 431L531 433L533 431L531 431M328 432L327 436L328 432M309 433L308 435L310 435L309 433M69 434L68 438L69 438L69 434M529 434L529 436L531 436L531 434L529 434M307 435L308 436L307 435M305 436L304 438L306 438L305 436M326 436L324 444L325 444L326 436M67.3333 438.667L67.6667 439.333L67.3333 438.667M301 440L304 438L301 440M456 438L456 440L458 440L458 438L456 438M527.667 438.333L528.333 438.667L527.667 438.333M65 440C62.8193 451.997 77.2143 448 86 448L155 448L155 453L156 453C157.154 442.655 141.983 446 135 446L66 446L67 440L65 440M299.333 440.667L299.667 441.333L299.333 440.667M526.333 440.667L526.667 441.333L526.333 440.667M295 442L295 444L297 442L295 442M456 442L456 448L458 448L458 442L456 442M289 446L293 445L289 446M322 444L322 450L323 450L324 444L322 444M523 444L523 446L525 446L525 444L523 444M224 456L225 456C226.466 446.801 233.319 448 241 448L287 448L287 446L246 446C240.712 446 233.021 444.599 228.059 446.603C224.036 448.228 224.044 452.301 224 456M522 446L519 452L522 446M320 450L320 455L321 455L322 450L320 450M518 452L514 461L515 461L518 452M655 452L654 458L655 458L655 452M154 453L153 459L154 459L154 453M223 456L222 461L223 461L223 456M319 456L318 461L319 461L319 456M381 457L383 461L381 457M458 457L458 467L460 467L458 457M577 457L577 459L579 459L579 457L577 457M575 459L575 461L577 461L577 459L575 459M652 459L652 465L653 465L654 459L652 459M152 461L151 467L152 467L152 461M512 461L512 463L514 463L514 461L512 461z"/>
<path style="fill:#f6f6f6; stroke:none;" d="M575 461L575 463L577 463L577 461L575 461z"/>
<path style="fill:#8a9fcc; stroke:none;" d="M383 462L383 470L385 470L385 462L383 462M573.667 462.333L574.333 462.667L573.667 462.333M221 463L220 469L221 469L221 463M575 463L575 467L577 467L577 463L575 463M511 464L512 465L511 464M316 465L316 469L317 469L318 465L316 465M379 465L379 469L381 469L381 465L379 465M510.333 465.667L510.667 466.333L510.333 465.667M571 465L571 467L573 467L573 465L571 465M650 465L650 470L651 470L652 465L650 465M508 467L508 469L510 469L510 467L508 467M570 467L569 471L570 471L570 467M150 469L149 474L150 474L150 469M573 469L573 473L575 473L575 469L573 469M314 471L314 475L316 475L316 471L314 471M378 471L377 476L379 476L378 471M506 471L506 473L508 471L506 471M567 471L567 473L569 473L569 471L567 471M218 472L218 477L220 477L220 472L218 472M566 473L559 486C562.733 483.577 567.106 477.558 566 473M648 473L648 476L650 476L650 473L648 473M504 474L504 476L506 476L506 474L504 474M460 475L460 486L462 486L460 475M572 476L571 481L573 481L572 476M376 477L374 488L375 488L376 477M502 477L502 479L504 479L504 477L502 477M147 478L147 482L148 482L149 478L147 478M312 479L312 482L314 482L314 479L312 479M385 479L385 490L387 490L387 479L385 479M216 480L216 484L218 484L218 480L216 480M501 480L500 482L502 482L501 480M646 480L646 482L648 482L648 480L646 480M499 483L498 486L499 483M570 483L569 488L571 488L570 483M145 484L145 490L147 490L147 484L145 484M310 486L310 490L312 490L312 486L310 486M497.333 486.667L497.667 487.333L497.333 486.667M558.333 486.667L558.667 487.333L558.333 486.667M644 486L644 490L646 490L646 486L644 486M214 488L214 492L216 492L216 488L214 488M372 488L366 516L367 516L374 488L372 488M495 488L494 492L495 488M556 488L556 490L558 490L558 488L556 488M462 490L462 505L464 505L462 490M568 490L562 515L563 515L568 490M143 492L143 497L145 497L145 492L143 492M309 492L308 496L309 492M493.333 492.667L493.667 493.333L493.333 492.667M554 492L554 494L556 492L554 492M643 492L642 497L643 497L643 492M491 494L489 500L493 494L491 494M552 494L552 496L554 496L554 494L552 494M387 495L387 505L389 505L387 495M212 496L212 501L214 501L214 496L212 496M307 498L306 505L307 505L307 498M550.667 498.333L551.333 498.667L550.667 498.333M641 498L640 503L641 498M142 500L141 505L143 505L142 500M487 500L487 503L489 500L487 500M549 500L548 503L549 500M211 503L210 509L212 509L211 503M485 503L485 506L487 503L485 503M546.667 504.333L547.333 504.667L546.667 504.333M639 504L629 540L630 540C633.033 531.756 642.177 512.223 639 504M305 505L304 511L305 505M545 506L544 509L545 506M140 507L137 521C139.583 517.615 141.666 511.076 140 507M483 507L483 509L485 509L485 507L483 507M464 508L466 534L471 528L470 528L468 532L467 532L464 508M543.333 509.667L543.667 510.333L543.333 509.667M209 510L208 517L210 517L209 510M303 511L297 538L298 538C299.143 530.224 306.026 518.437 303 511M389 511L390 525L391 525L389 511M481.333 511.667L481.667 512.333L481.333 511.667M542.333 511.667L542.667 512.333L542.333 511.667M479 513L479 515L481 515L481 513L479 513M540 513L540 515L542 515L542 513L540 513M539 515L537 521L538 521L539 515M560 515L560 521L561 521L562 515L560 515M207 517L203 538L204 538L207 517M364 517L364 521L365 521L366 517L364 517M477 517L477 519L479 519L479 517L477 517M476 519L475 522L476 519M136 521L134 534L135 534L136 521M535 521L533 526L537 521L535 521M558 521L558 527L559 527L560 521L558 521M474 522L473 525L474 522M362 524L362 528L363 528L364 524L362 524M472 525L471 528L472 525M531 527L531 529L533 527L531 527M556 528L556 534L557 534L558 528L556 528M391 529L392 541L393 541L391 529M529 530L529 532L531 532L531 530L529 530M360 532L360 534L362 534L362 532L360 532M132 534L130 548L131 548L134 534L132 534M525 536L525 538L527 538L527 536L525 536M554 536L554 540L556 540L556 536L554 536M201 538L199 551L200 551L203 538L201 538M295 538L295 543L296 543L297 538L295 538M358 538L358 542L360 542L360 538L358 538M523 540L523 542L525 542L525 540L523 540M628 540L627 546L628 546L628 540M393 542L393 557L395 557L393 542M522 542L521 545L522 542M294 544L293 549L294 549L294 544M552 544L552 547L554 547L554 544L552 544M357 545L356 549L357 545M520 545L519 548L520 545M129 548L128 555L129 555L129 548M518 548L517 551L518 548M625 548L625 551L627 551L627 548L625 548M516 551L514 557L515 557L516 551M550 551L550 554L552 554L552 551L550 551M291 552L291 557L292 557L293 552L291 552M355 552L354 557L356 557L355 552M198 554L197 559L198 559L198 554M623 555L623 559L625 559L625 555L623 555M126 557L126 561L128 561L128 557L126 557M395 557L399 594L400 594L395 557M512.333 557.667L512.667 558.333L512.333 557.667M549 557L548 561L549 557M353 558L352 565L353 565L353 558M289.667 559.333L290.333 559.667L289.667 559.333M510 559L510 563L511 563L513 560L510 559M289 561L289 563L291 563L291 561L289 561M621 561L621 565L623 565L623 561L621 561M195 563L195 567L197 567L197 563L195 563M508 563L508 565L510 565L510 563L508 563M547 563L546 569L547 569L547 563M124 565L124 569L126 569L126 565L124 565M351 565L345 590L346 590C347.244 582.679 353.902 572.183 351 565M507 566L506 568L508 568L507 566M287 567L287 571L289 571L289 567L287 567M504 569L504 571L506 571L506 569L504 569M545 569L539 594L540 594C541.244 586.679 547.902 576.183 545 569M619 569L619 572L621 569L619 569M193 571L193 575L195 575L195 571L193 571M122 573L122 576L124 576L124 573L122 573M502.667 573.333L503.333 573.667L502.667 573.333M286 574L285 578L286 574M618 574L617 578L618 574M501 575L500 578L501 575M191 578L191 582L193 582L193 578L191 578M499 578L498 580L500 580L499 578M120 580L120 584L122 584L122 580L120 580M284 580L283 586L285 586L284 580M616 580L615 586L617 586L616 580M497 581L498 582L497 581M495 582L494 586L497 582L495 582M189 586L189 590L191 590L191 586L189 586M282 586C281.783 588.063 280.372 591.738 282.333 593.278C284.76 595.184 291.067 594 294 594L329 594C333.678 594 343.761 595.812 345 590C328.331 597.063 301.047 592 283 592L282 586M491 586L491 588L494 588L494 586L491 586M614 586C611.581 596.025 603.593 594 595 594L540 594L540 595L599 595C605.201 595 618.133 596.234 614 586M118 588C118.309 597.287 127.86 595.16 135 594.985C152.98 594.545 171.001 594.05 189 594L189 592L120 592L120 588L118 588M489 588L489 590L491 590L491 588L489 588M487 590L487 592L489 590L487 590M400 594L400 595L456 595L487 593L463 594L400 594z"/>
</svg>
